<svg xmlns="http://www.w3.org/2000/svg" width="171" height="30" fill="none" viewBox="0 0 171 30" class="w-auto"><path d="M34.98 12.63C38.97 11.76 45.54 10.77 45.54 16.29H40.29C33.33 16.29 30.51 19.08 30.51 23.1C30.51 27.03 33.66 30 39 30C42.36 30 44.73 28.92 45.96 26.82V29.67H52.14V16.68C52.14 6.80997 44.52 6.26997 34.95 6.56997L37.14 9.59997L34.98 12.63ZM40.65 25.56C38.34 25.56 36.93 24.45 36.93 22.8C36.93 21.27 37.92 20.13 41.01 20.13H45.54C45.54 23.43 44.61 25.56 40.65 25.56Z" fill="#3EBCB2"></path><path d="M71.34 29.7H79.35L69 16.56L78.48 6.9H70.62L60.96 16.05V0H54.33V29.7H60.96V23.88L64.14 20.76L71.34 29.7Z" fill="#3EBCB2"></path><path d="M99.3 13.26C96.36 6.54002 89.85 4.47002 83.7 7.14002C77.34 9.93002 74.52 16.5 77.22 22.77C79.92 28.98 86.61 31.47 93.84 28.35C97.59 26.7 100.02 24.27 100.98 21.21L96.24 19.11C95.4 21.09 94.08 22.44 91.89 23.4C88.68 24.81 85.77 24.15 84.06 21.81L99.87 14.94C99.69 14.43 99.48 13.74 99.3 13.26ZM85.74 11.73C88.44 10.53 91.17 11.37 92.76 13.83L82.47 18.3C81.72 15.45 82.98 12.93 85.74 11.73Z" fill="#3EBCB2"></path><path d="M117.36 6.56995C114.27 6.56995 111.6 7.61995 109.83 9.56995V6.89995H103.5V29.6999H110.1V18.4199C110.1 14.2199 112.41 12.2699 115.59 12.2699C118.5 12.2699 120.18 13.9799 120.18 17.6699V29.6999H126.81V16.6499C126.81 9.68995 122.73 6.56995 117.36 6.56995Z" fill="#3EBCB2"></path><path d="M9.48 29.7H16.35V5.64003H24.93V0.0300293H0V5.64003H9.48V29.7Z" fill="#3EBCB2"></path><path d="M24.87 9.89995V7.82995H18.57V29.6999H25.17V18.9299C25.17 14.5799 27.6 12.5699 31.23 12.5699C31.74 12.5699 32.16 12.6299 32.7 12.6599L34.92 9.59995L32.7 6.56995C29.19 6.56995 26.49 7.70995 24.87 9.89995Z" fill="#3EBCB2"></path><path d="M147.78 29.7C156.03 29.7 160.95 24.96 160.95 16.41V0.119995H154.29V16.14C154.29 21.66 151.92 23.97 147.81 23.97C143.73 23.97 141.33 21.66 141.33 16.14V0.119995H134.61V16.41C134.61 24.96 139.5 29.7 147.78 29.7Z" fill="#3EBCB2"></path><path d="M163.41 29.7H170.04V6.54004L166.74 8.88004L163.41 6.54004V29.7Z" fill="#3EBCB2"></path><path fill-rule="evenodd" clip-rule="evenodd" d="M163.14 5.13L164.04 4.5L166.74 6.39L169.41 4.5L170.31 5.13L166.74 7.65L163.14 5.13Z" fill="#3EBCB2"></path><path d="M166.735 0.10121L163.154 2.63501L166.721 5.15847L170.302 2.62467L166.735 0.10121Z" fill="#3EBCB2"></path></svg>