<svg xmlns="http://www.w3.org/2000/svg" enable-background="new 0 0 24 24" viewBox="0 0 24 24" id="Server">
  <g id="Layer_2" fill="#34a853" class="color000000 svgShape">
    <circle cx="7.5" cy="18.5" r=".5" fill="#34a853" class="color000000 svgShape"></circle>
    <circle cx="9.5" cy="18.5" r=".5" fill="#34a853" class="color000000 svgShape"></circle>
    <path d="M17,2H7C5.3457,2,4,3.3457,4,5v2c0,0.7711,0.3005,1.468,0.7803,2C4.3005,9.532,4,10.2289,4,11v2
		c0,0.7711,0.3005,1.468,0.7803,2C4.3005,15.532,4,16.2289,4,17v2c0,1.6543,1.3457,3,3,3h10c1.6543,0,3-1.3457,3-3v-2
		c0-0.7711-0.3005-1.468-0.7803-2C19.6995,14.468,20,13.7711,20,13v-2c0-0.7711-0.3005-1.468-0.7803-2C19.6995,8.468,20,7.7711,20,7
		V5C20,3.3457,18.6543,2,17,2z M18,19c0,0.5513-0.4487,1-1,1H7c-0.5513,0-1-0.4487-1-1v-2c0-0.5513,0.4487-1,1-1h10
		c0.5513,0,1,0.4487,1,1V19z M18,13c0,0.5513-0.4487,1-1,1H7c-0.5513,0-1-0.4487-1-1v-2c0-0.5513,0.4487-1,1-1h10
		c0.5513,0,1,0.4487,1,1V13z M18,7c0,0.5513-0.4487,1-1,1H7C6.4487,8,6,7.5513,6,7V5c0-0.5513,0.4487-1,1-1h10
		c0.5513,0,1,0.4487,1,1V7z" fill="#34a853" class="color000000 svgShape"></path>
    <circle cx="7.5" cy="6.5" r=".5" fill="#34a853" class="color000000 svgShape"></circle>
    <circle cx="9.5" cy="6.5" r=".5" fill="#34a853" class="color000000 svgShape"></circle>
    <path d="M16,11h-1c-0.5522,0-1,0.4478-1,1s0.4478,1,1,1h1c0.5522,0,1-0.4478,1-1S16.5522,11,16,11z" fill="#34a853" class="color000000 svgShape"></path>
  </g>
</svg>
